{"accessors":[{"bufferView":2,"componentType":5126,"count":1008,"max":[1.121606707572937,3.4135231971740723,3.746246576309204],"min":[-1.1216068267822266,-3.271876811981201,-5.45516300201416],"type":"VEC3"},{"bufferView":2,"byteOffset":12096,"componentType":5126,"count":1008,"max":[0.9998449683189392,0.9982925057411194,0.9981882572174072],"min":[-1,-0.9983019828796387,-1],"type":"VEC3"},{"bufferView":1,"componentType":5126,"count":1008,"max":[0.7500000596046448,0.8750001192092896],"min":[0,0],"type":"VEC2"},{"bufferView":0,"componentType":5125,"count":5034,"type":"SCALAR"},{"bufferView":2,"byteOffset":24192,"componentType":5126,"count":53,"max":[0.3964998126029968,1.3580193519592285,3.746246576309204],"min":[-0.3964998126029968,1.0377568006515503,3.0882067680358887],"type":"VEC3"},{"bufferView":2,"byteOffset":24828,"componentType":5126,"count":53,"max":[0.9801193475723267,0.9939746856689453,0.9938352704048157],"min":[-0.9785869121551514,-0.9172825813293457,-0.10960293561220169],"type":"VEC3"},{"bufferView":1,"byteOffset":8064,"componentType":5126,"count":53,"max":[0.7500001192092896,0.8750001192092896],"min":[0,0],"type":"VEC2"},{"bufferView":0,"byteOffset":20136,"componentType":5125,"count":162,"type":"SCALAR"},{"bufferView":2,"byteOffset":25464,"componentType":5126,"count":38,"max":[0.9955326318740845,-0.2807479798793793,-3.6965150833129883],"min":[-0.3800874948501587,-1.985336184501648,-5.970503330230713],"type":"VEC3"},{"bufferView":2,"byteOffset":25920,"componentType":5126,"count":38,"max":[0.9833741188049316,0.8093385100364685,0.397331565618515],"min":[-0.994293749332428,-0.9922626614570618,-0.8891008496284485],"type":"VEC3"},{"bufferView":1,"byteOffset":8488,"componentType":5126,"count":38,"max":[0.5625001192092896,0.4375000298023224],"min":[0,0],"type":"VEC2"},{"bufferView":0,"byteOffset":20784,"componentType":5125,"count":108,"type":"SCALAR"},{"bufferView":2,"byteOffset":26376,"componentType":5126,"count":41,"max":[0.14718860387802124,0.18676580488681793,0.11962173879146576],"min":[-0.13851408660411835,-0.18990294635295868,-0.12353924661874771],"type":"VEC3"},{"bufferView":2,"byteOffset":26868,"componentType":5126,"count":41,"max":[0.971700131893158,0.9689610600471497,0.9226530194282532],"min":[-0.9704768657684326,-0.997432291507721,-0.9389758706092834],"type":"VEC3"},{"bufferView":1,"byteOffset":8792,"componentType":5126,"count":41,"max":[1,1],"min":[0.009099911898374557,0.026713507249951363],"type":"VEC2"},{"bufferView":0,"byteOffset":21216,"componentType":5125,"count":192,"type":"SCALAR"},{"bufferView":2,"byteOffset":27360,"componentType":5126,"count":45,"max":[0.1483067125082016,0.18676580488681793,0.12581071257591248],"min":[-0.13851408660411835,-0.18990294635295868,-0.12353924661874771],"type":"VEC3"},{"bufferView":2,"byteOffset":27900,"componentType":5126,"count":45,"max":[0.9947238564491272,0.9689610600471497,0.9699112772941589],"min":[-0.9704768657684326,-0.997432291507721,-0.9422622323036194],"type":"VEC3"},{"bufferView":1,"byteOffset":9120,"componentType":5126,"count":45,"max":[1,1],"min":[0.009099911898374557,0.026713507249951363],"type":"VEC2"},{"bufferView":0,"byteOffset":21984,"componentType":5125,"count":216,"type":"SCALAR"}],"asset":{"extras":{"author":"Blendcat (https://sketchfab.com/tsumanenkonikita)","license":"CC-BY-4.0 (http://creativecommons.org/licenses/by/4.0/)","source":"https://sketchfab.com/3d-models/low-poly-plastic-fox-68f926a18ec54264bf422c0ae522606b","title":"Low Poly Plastic Fox"},"generator":"Sketchfab-15.53.0","version":"2.0"},"bufferViews":[{"buffer":0,"byteLength":22848,"name":"floatBufferViews","target":34963},{"buffer":0,"byteLength":9480,"byteOffset":22848,"byteStride":8,"name":"floatBufferViews","target":34962},{"buffer":0,"byteLength":28440,"byteOffset":32328,"byteStride":12,"name":"floatBufferViews","target":34962}],"buffers":[{"byteLength":60768,"uri":"data:application/octet-stream;base64,"}],"materials":[{"doubleSided":true,"name":"Material.002","pbrMetallicRoughness":{"baseColorFactor":[1,0.276947,0,1],"metallicFactor":0,"roughnessFactor":0}},{"doubleSided":true,"name":"Material.005","pbrMetallicRoughness":{"baseColorFactor":[0,0,0,1],"metallicFactor":0,"roughnessFactor":0}},{"doubleSided":true,"name":"Material.006","pbrMetallicRoughness":{"baseColorFactor":[0.8,0.8,0.8,1],"metallicFactor":0,"roughnessFactor":0}},{"doubleSided":true,"name":"Material.003","pbrMetallicRoughness":{"baseColorFactor":[0.0952506,0.36469,0.0819635,1],"metallicFactor":0,"roughnessFactor":0}},{"doubleSided":true,"name":"Material.004","pbrMetallicRoughness":{"baseColorFactor":[0.119979,0.491858,0.108283,1],"metallicFactor":0,"roughnessFactor":0}}],"meshes":[{"name":"Object_0","primitives":[{"attributes":{"NORMAL":1,"POSITION":0,"TEXCOORD_0":2},"indices":3,"material":0,"mode":4}]},{"name":"Object_1","primitives":[{"attributes":{"NORMAL":5,"POSITION":4,"TEXCOORD_0":6},"indices":7,"material":1,"mode":4}]},{"name":"Object_2","primitives":[{"attributes":{"NORMAL":9,"POSITION":8,"TEXCOORD_0":10},"indices":11,"material":2,"mode":4}]},{"name":"Object_3","primitives":[{"attributes":{"NORMAL":13,"POSITION":12,"TEXCOORD_0":14},"indices":15,"material":3,"mode":4}]},{"name":"Object_4","primitives":[{"attributes":{"NORMAL":17,"POSITION":16,"TEXCOORD_0":18},"indices":19,"material":4,"mode":4}]}],"nodes":[{"children":[1],"matrix":[1,0,0,0,0,2.220446049250313e-16,-1,0,0,1,2.220446049250313e-16,0,0,0,0,1],"name":"Sketchfab_model"},{"children":[2],"name":"root"},{"children":[3,7,9],"matrix":[1,0,0,0,0,2.220446049250313e-16,1,0,0,-1,2.220446049250313e-16,0,0,0,0,1],"name":"GLTF_SceneRootNode"},{"children":[4,5,6],"matrix":[1,0,0,0,0,1,0,0,0,0,1,0,0,2.939544677734375,2.225072145462036,1],"name":"Cube_0"},{"mesh":0,"name":"Object_4"},{"mesh":1,"name":"Object_5"},{"mesh":2,"name":"Object_6"},{"children":[8],"matrix":[0.9673808967116937,0.19130386450813677,0.16606333762011366,0,-0.07769714280744586,-0.39987649574359563,0.9132699174676572,0,0.24111689006960663,-0.8963825185578277,-0.37196911934606436,0,0.5026383996009827,4.664362907409668,3.8498446941375732,1],"name":"Sphere_1"},{"mesh":3,"name":"Object_8"},{"children":[10],"matrix":[0.9673808967116937,0.19130386450813677,0.16606333762011366,0,-0.07769714280744586,-0.39987649574359563,0.9132699174676572,0,0.24111689006960663,-0.8963825185578277,-0.37196911934606436,0,-0.43736159801483154,4.664362907409668,3.8498446941375732,1],"name":"Sphere.001_2"},{"mesh":4,"name":"Object_10"}],"scene":0,"scenes":[{"name":"Sketchfab_Scene","nodes":[0]}]}